<svg xmlns="http://www.w3.org/2000/svg" width="21" height="22" viewBox="0 0 21 22" fill="none">
    <defs>
        <linearGradient id="gradientFill" x1="21" y1="22" x2="-6" y2="15" gradientUnits="userSpaceOnUse">
            <stop stop-color="#C58BF2"/>
            <stop offset="1" stop-color="#EEA4CE"/>
        </linearGradient>
    </defs>
    
    <!-- Lớp dưới: Fill gradient -->
    <path d="M5.24487 13.7815L8.23801 9.89137L11.6522 12.5733L14.5813 8.79297" 
          fill="url(#gradientFill)"/>
    <circle cx="17.9954" cy="3.20052" r="1.9222" fill="url(#gradientFill)"/>
    <path d="M12.9245 2.12012H5.65679C2.64535 2.12012 0.778076 4.25284 0.778076 7.26428V15.3467C0.778076 18.3581 2.60874 20.4817 5.65679 20.4817H14.2609C17.2724 20.4817 19.1396 18.3581 19.1396 15.3467V8.30776" 
          fill="url(#gradientFill)"/>

    <!-- Lớp trên: Stroke bên trong -->
    <path d="M5.24487 13.7815L8.23801 9.89137L11.6522 12.5733L14.5813 8.79297" 
          stroke="white" stroke-width="0.8" stroke-linecap="round" stroke-linejoin="round"/>
    <circle cx="17.9954" cy="3.20052" r="1.9222" 
            stroke="white" stroke-width="0.8" stroke-linecap="round" stroke-linejoin="round"/>
    <path d="M12.9245 2.12012H5.65679C2.64535 2.12012 0.778076 4.25284 0.778076 7.26428V15.3467C0.778076 18.3581 2.60874 20.4817 5.65679 20.4817H14.2609C17.2724 20.4817 19.1396 18.3581 19.1396 15.3467V8.30776" 
          stroke="url(#gradientFill)" stroke-width="0.8" stroke-linecap="round" stroke-linejoin="round"/>
</svg>
