<svg width="16" height="14" viewBox="0 0 16 14" fill="none" xmlns="http://www.w3.org/2000/svg">
<g id="Filter">
<path id="Stroke 1" d="M6.60846 10.8274H1.35786" stroke="url(#paint0_linear_1263_902)" stroke-width="1.2" stroke-linecap="round" stroke-linejoin="round"/>
<path id="Stroke 3" d="M8.95039 2.75023H14.201" stroke="url(#paint1_linear_1263_902)" stroke-width="1.2" stroke-linecap="round" stroke-linejoin="round"/>
<path id="Stroke 5" fill-rule="evenodd" clip-rule="evenodd" d="M5.2719 2.70521C5.2719 1.6255 4.3901 0.75 3.30261 0.75C2.21513 0.75 1.33333 1.6255 1.33333 2.70521C1.33333 3.78492 2.21513 4.66042 3.30261 4.66042C4.3901 4.66042 5.2719 3.78492 5.2719 2.70521Z" stroke="url(#paint2_linear_1263_902)" stroke-width="1.2" stroke-linecap="round" stroke-linejoin="round"/>
<path id="Stroke 7" fill-rule="evenodd" clip-rule="evenodd" d="M14.6667 10.7946C14.6667 9.71485 13.7855 8.83936 12.6981 8.83936C11.6099 8.83936 10.7281 9.71485 10.7281 10.7946C10.7281 11.8743 11.6099 12.7498 12.6981 12.7498C13.7855 12.7498 14.6667 11.8743 14.6667 10.7946Z" stroke="url(#paint3_linear_1263_902)" stroke-width="1.2" stroke-linecap="round" stroke-linejoin="round"/>
</g>
<defs>
<linearGradient id="paint0_linear_1263_902" x1="6.60846" y1="11.1718" x2="1.38524" y2="8.09146" gradientUnits="userSpaceOnUse">
<stop stop-color="#92A3FD"/>
<stop offset="1" stop-color="#9DCEFF"/>
</linearGradient>
<linearGradient id="paint1_linear_1263_902" x1="14.201" y1="3.09469" x2="8.97778" y2="0.0143119" gradientUnits="userSpaceOnUse">
<stop stop-color="#92A3FD"/>
<stop offset="1" stop-color="#9DCEFF"/>
</linearGradient>
<linearGradient id="paint2_linear_1263_902" x1="5.2719" y1="4.66042" x2="0.023049" y2="4.25134" gradientUnits="userSpaceOnUse">
<stop stop-color="#92A3FD"/>
<stop offset="1" stop-color="#9DCEFF"/>
</linearGradient>
<linearGradient id="paint3_linear_1263_902" x1="14.6667" y1="12.7498" x2="9.41781" y2="12.3407" gradientUnits="userSpaceOnUse">
<stop stop-color="#92A3FD"/>
<stop offset="1" stop-color="#9DCEFF"/>
</linearGradient>
</defs>
</svg>
