<svg width="16" height="14" viewBox="0 0 16 14" fill="none" xmlns="http://www.w3.org/2000/svg">
<g id="Filter">
<path id="Stroke 1" d="M6.60846 10.8274H1.35786" stroke="#7B6F72" stroke-width="1.2" stroke-linecap="round" stroke-linejoin="round"/>
<path id="Stroke 3" d="M8.95039 2.75023H14.201" stroke="#7B6F72" stroke-width="1.2" stroke-linecap="round" stroke-linejoin="round"/>
<path id="Stroke 5" fill-rule="evenodd" clip-rule="evenodd" d="M5.2719 2.70521C5.2719 1.6255 4.3901 0.75 3.30261 0.75C2.21513 0.75 1.33333 1.6255 1.33333 2.70521C1.33333 3.78492 2.21513 4.66042 3.30261 4.66042C4.3901 4.66042 5.2719 3.78492 5.2719 2.70521Z" stroke="#7B6F72" stroke-width="1.2" stroke-linecap="round" stroke-linejoin="round"/>
<path id="Stroke 7" fill-rule="evenodd" clip-rule="evenodd" d="M14.6667 10.7946C14.6667 9.71485 13.7855 8.83936 12.6981 8.83936C11.6099 8.83936 10.7281 9.71485 10.7281 10.7946C10.7281 11.8743 11.6099 12.7498 12.6981 12.7498C13.7855 12.7498 14.6667 11.8743 14.6667 10.7946Z" stroke="#7B6F72" stroke-width="1.2" stroke-linecap="round" stroke-linejoin="round"/>
</g>
</svg>
