<svg width="375" height="278" viewBox="0 0 375 278" fill="none" xmlns="http://www.w3.org/2000/svg">
<path fill-rule="evenodd" clip-rule="evenodd" d="M177.418 265.733C159.057 262.451 143.191 251.255 124.64 249.323C95.4308 246.283 52.6928 276.531 37.667 251.185C21.2989 223.575 80.2261 194.471 73.4976 163.055C66.9011 132.254 9.28444 130.988 5.23363 99.7469C1.88087 73.8894 35.3622 56.3126 58.0038 43.561C78.2949 32.1331 102.654 32.2599 125.911 31.7817C143.574 31.4186 160.117 44.7014 177.418 41.1057C200.893 36.2267 216.354 7.70671 240.324 8.00227C263.009 8.28199 297.755 19.8041 298.04 42.593C298.461 76.1735 229.678 93.1647 241.784 124.469C256.667 162.956 330.169 143.256 350.781 178.977C364.031 201.939 333.4 231.001 312.953 247.808C293.064 264.155 265.567 266.591 240.089 269.961C219.067 272.742 198.293 269.465 177.418 265.733Z" fill="url(#paint0_linear_255_4390)"/>
<mask id="mask0_255_4390" style="mask-type:alpha" maskUnits="userSpaceOnUse" x="0" y="0" width="375" height="278">
<path d="M0 60C0 31.7157 0 17.5736 8.7868 8.7868C17.5736 0 31.7157 0 60 0H199H315C343.284 0 357.426 0 366.213 8.7868C375 17.5736 375 31.7157 375 60V218C375 246.284 375 260.426 366.213 269.213C357.426 278 343.284 278 315 278H60C31.7157 278 17.5736 278 8.7868 269.213C0 260.426 0 246.284 0 218V60Z" fill="#C4C4C4"/>
</mask>
<g mask="url(#mask0_255_4390)">
<path d="M216.231 19.3478C216.231 19.3478 234.702 23.8013 242.015 32.396C249.328 40.9908 246.814 63.1432 244.907 75.8956C243.001 88.6481 237.89 97.8673 243.938 102.321C249.985 106.774 252.154 102.649 252.154 102.649C252.154 102.649 243.938 116.651 235.277 118.574C226.617 120.496 214.571 109.65 212.665 100.102C210.758 90.5544 209.477 76.2079 211.021 66.3313C212.566 56.4547 215.59 53.1023 217.118 46.4138C218.646 39.7254 217.43 28.5834 217.43 28.5834L216.231 19.3478Z" fill="#3B2645"/>
<path d="M189.478 260.938C226.417 260.938 256.362 235.841 256.362 204.883C256.362 173.924 226.417 148.828 189.478 148.828C152.538 148.828 122.593 173.924 122.593 204.883C122.593 235.841 152.538 260.938 189.478 260.938Z" fill="#AB8DA8"/>
<path d="M132.749 73.0695L131.287 72.0999L124.467 61.8782L129.923 50.8677L142.182 50.0625L143.645 51.0485L132.749 73.0695Z" fill="#393762"/>
<path d="M145.008 72.2804L132.749 73.0692L125.929 62.8475L131.368 51.837L143.644 51.0482L150.448 61.2699L145.008 72.2804Z" fill="#636183"/>
<path d="M174.523 68.4187C171.458 71.8001 168.84 75.5613 166.734 79.6099C162.593 87.1694 152.125 97.6869 150.185 99.8232C149.272 100.972 148.101 101.89 146.767 102.502C144.921 97.0959 143.46 91.5659 142.396 85.9533C141.426 79.3799 139.964 66.4631 139.964 66.4631L143.858 58.6736C143.858 58.6736 140.687 52.3303 139.471 51.8701C138.255 51.41 135.822 52.1002 132.174 55.2719C128.526 58.4435 127.047 61.5988 128.756 65.4771C130.465 69.3554 134.113 73.2666 133.686 79.5935C133.259 85.9204 133.456 108.089 135.642 115.386C137.827 122.682 137.597 122.699 140.572 122.699C143.546 122.699 152.075 119.034 161.032 114.482C166.277 111.862 170.73 107.891 173.932 102.978L174.523 68.4187Z" fill="#FFEDE5"/>
<path d="M193.027 64.5344C188.941 63.8397 184.76 63.9177 180.702 64.7644C174.655 66.227 171.516 70.0889 170.3 77.106C169.084 84.1232 164.745 92.8329 167.654 99.4064C170.563 105.98 173.208 111.025 173.455 116.333C173.573 121.399 173.337 126.468 172.748 131.501C172.268 132.507 171.719 133.479 171.105 134.41C171.105 134.41 170.612 138.272 158.517 134.886C146.422 131.501 130.958 132.471 115.001 136.102C99.0438 139.734 90.5806 142.676 89.8575 147.951C89.1344 153.226 89.1344 186.143 90.5806 195.822C91.3939 202.339 91.2333 208.941 90.104 215.411C86.0962 218.2 81.7985 220.547 77.2858 222.411C70.5152 225.074 66.6533 226.52 67.853 228.985C69.0526 231.45 73.654 231.894 79.455 231.894C85.2561 231.894 93.2428 231.417 93.2428 231.417C93.2428 231.417 85.9956 236.002 81.1477 239.141C76.2998 242.28 71.7313 243.019 73.9005 246.404C76.0697 249.79 96.9075 248.82 101.953 248.82C106.998 248.82 112.832 246.881 113.308 244.712C113.785 242.543 111.862 235.032 111.862 232.14C111.862 229.248 111.139 216.413 114.031 210.612C116.924 204.811 121.295 187.885 121.048 181.36C120.802 174.836 120.325 170.728 120.325 170.728C120.325 170.728 148.098 174.541 158.944 178.402C169.79 182.264 193.997 185.42 205.369 179.865C216.741 174.31 221.326 167.523 219.633 157.86C217.941 148.198 213.339 141.904 214.555 130.532C215.771 119.159 215.755 108.05 218.664 102.496C221.572 96.9413 228.096 87.0155 227.603 80.4913C227.11 73.9672 215.032 67.3445 208.984 65.0109C202.937 62.6774 193.027 64.5344 193.027 64.5344Z" fill="#FFEDE5"/>
<path d="M89.7918 148.532C89.0687 153.84 89.0687 186.724 90.5149 196.403C91.3282 202.92 91.1676 209.522 90.0383 215.992C86.0305 218.781 81.7328 221.128 77.2201 222.993C70.4495 225.655 66.5876 227.101 67.7873 229.566C68.9869 232.031 73.5883 232.475 79.3894 232.475C84.3194 232.475 90.7778 232.13 92.6348 232.015C93.8016 231.637 96.0859 230.832 96.0859 230.372C96.0859 229.911 98.0086 212.295 98.2551 195.302C98.5016 178.31 100.441 158.688 100.441 158.688L98.2715 149.979C96.2813 148.109 94.1374 146.411 91.8624 144.901C90.7567 145.822 90.0213 147.112 89.7918 148.532Z" fill="#FFEDE5"/>
<path d="M95.5928 223.962C95.5928 223.962 94.8698 222.319 93.6537 219.131C93.4395 218.303 92.9793 217.56 92.3337 217C91.6882 216.439 90.8878 216.088 90.0383 215.992C86.0305 218.781 81.7328 221.128 77.2201 222.993C70.4495 225.655 66.5876 227.101 67.7873 229.566C68.9869 232.031 73.5883 232.475 79.3894 232.475C84.3194 232.475 90.7778 232.13 92.6348 232.015C93.8016 231.637 96.0859 230.832 96.0859 230.372C96.0859 230.109 96.3159 227.742 96.6446 224.077L95.5928 223.962Z" fill="#3B2645"/>
<path d="M188.919 142.961C182.692 139.683 177.27 135.064 173.044 129.436C172.913 130.866 172.798 131.868 172.732 132.082C172.251 133.088 171.702 134.06 171.089 134.991C171.089 134.991 170.596 138.853 158.501 135.467C146.406 132.082 130.942 133.052 114.985 136.683C99.0276 140.315 90.5644 143.257 89.8413 148.532C89.8413 148.779 89.8413 149.091 89.7427 149.452C90.6736 150.81 91.6775 152.115 92.75 153.364C94.8555 155.723 97.4915 157.548 100.441 158.688C101.18 162.073 105.765 172.706 112.536 172.706C119.307 172.706 120.276 171.26 120.276 171.26C120.276 171.26 148.098 175.122 158.944 178.983C169.791 182.845 193.997 186.001 205.369 180.446C216.741 174.891 221.326 168.104 219.633 158.441C218.882 154.729 217.877 151.072 216.626 147.497C209.264 147.891 197.399 147.645 188.919 142.961Z" fill="#3B2645"/>
<path d="M172.748 132.082C172.267 133.088 171.718 134.06 171.105 134.991C171.105 134.991 170.612 138.853 158.517 135.468C146.422 132.082 130.958 133.052 115.001 136.684C99.0437 140.316 90.5804 143.257 89.8573 148.532C89.7094 149.601 89.5944 151.819 89.5122 154.662C92.6916 157.028 96.4862 158.426 100.441 158.688C102.17 155.701 104.667 153.231 107.671 151.532C110.676 149.833 114.08 148.968 117.531 149.025C129.758 149.025 181.441 149.979 181.441 149.979L188.344 134.252C188.344 134.252 180.127 128.451 173.373 124.671C173.159 128.385 172.863 131.672 172.748 132.082Z" fill="#3B2645"/>
<path d="M214.653 133.348C215.278 130.669 227.603 116.503 228.836 111.573C230.068 106.643 234.587 91.6393 230.479 83.0117C226.37 74.3841 221.227 72.3299 221.227 72.3299C217.452 69.5553 213.344 67.2642 209 65.51C202.969 63.0942 193.043 65.0334 193.043 65.0334C188.957 64.3387 184.776 64.4168 180.718 65.2635C174.671 66.726 171.532 70.5879 170.316 77.6051C169.1 84.6222 164.745 93.4141 167.653 99.9876C170.562 106.561 173.208 111.606 173.454 116.914C173.573 121.98 173.337 127.049 172.748 132.082C172.267 133.088 171.718 134.06 171.104 134.991V135.09C172.896 138.787 177.004 146.593 181.523 149.978C185.766 150.109 189.845 151.64 193.125 154.333C198.055 158.688 204.021 159.641 210.545 159.641C213.641 159.518 216.705 158.965 219.649 157.998C218.006 149.387 214.21 143.389 214.473 133.89C214.569 133.723 214.63 133.539 214.653 133.348Z" fill="#AB8DA8"/>
<path d="M212.024 50.5061C212.024 50.5061 218.088 41.1883 219.058 33.218C220.027 25.2478 218.581 17.8198 209.872 13.1527C201.162 8.48554 188.344 13.1527 184.482 17.8198C180.62 22.4869 181.096 31.361 180.127 33.3002C179.157 35.2394 174.802 38.3782 175.295 39.5943C175.788 40.8103 178.927 42.4701 178.927 42.4701L180.571 49.9638C181.047 52.1495 182.493 55.0418 184.186 55.0418C186.487 54.8019 188.77 54.4177 191.022 53.8914C191.022 53.8914 191.499 61.4509 190.069 64.4911C188.146 68.5995 178.237 93.2169 182.592 95.7148C186.947 98.2127 205.369 78.8869 210.677 74.7785C215.985 70.6701 209.033 65.5921 209.033 65.5921C209.033 65.5921 206.651 65.4935 207.62 59.446C208.046 56.0569 209.597 52.9088 212.024 50.5061Z" fill="#FFEDE5"/>
<path d="M101.887 249.352C106.965 249.352 112.766 247.413 113.242 245.244C113.637 243.502 112.486 238.391 111.993 234.907C110.993 235.266 109.948 235.487 108.887 235.565C106.293 235.654 103.697 235.411 101.164 234.841C101.106 233.84 100.861 232.859 100.441 231.949C99.7175 230.306 96.1021 230.306 96.1021 230.306L92.1087 232.048H93.1934C93.1934 232.048 85.9462 236.633 81.0983 239.772C76.2504 242.91 71.6818 243.65 73.8511 247.035C76.0203 250.42 96.8087 249.352 101.887 249.352Z" fill="#3B2645"/>
<path d="M222.181 34.8942C223.134 26.9239 218.582 17.8197 209.872 13.1526C202.592 9.30715 192.469 11.9037 187.046 15.5355C188.13 15.7318 189.105 16.3159 189.79 17.1788C193.29 21.0078 191.433 28.0085 194.572 31.1966C197.711 34.3848 199.338 33.4316 199.338 33.4316C199.338 33.4316 202.855 27.6963 204.432 33.4316C206.01 39.1669 203.808 41.6484 202.214 42.3386C201.08 42.7655 199.908 43.0847 198.713 43.2917C198.713 43.2917 207.259 50.8347 212.025 50.5718C212.025 50.5061 221.211 42.8809 222.181 34.8942Z" fill="#3B2645"/>
<path d="M136.94 76.5203L135.494 75.5343L128.674 65.3126L134.113 54.3021L146.373 53.5133L147.835 54.4829L136.94 76.5203Z" fill="#393762"/>
<path d="M149.215 75.7151L136.939 76.5203L130.136 66.2822L135.575 55.2717L147.835 54.4829L154.655 64.7046L149.215 75.7151Z" fill="#636183"/>
<path d="M234.521 168.104C232.814 164.084 231.824 159.796 231.596 155.434C231.596 150.981 226.485 139.494 226.485 136.946C227.177 126.94 228.406 116.978 230.166 107.103C232.96 97.7032 232.73 87.5308 230.478 83.0116C228.227 78.4924 219.172 79.314 216.707 86.7091C214.242 94.1042 214.39 108.451 214.39 108.451C213.568 114.893 213.01 129.256 212.747 137.883C212.566 145.558 214.193 153.298 217.874 158.82C223.083 166.642 225.548 176.896 227.142 176.896C228.737 176.896 237.183 175.845 237.183 175.845C237.183 175.845 237.627 174.974 234.521 168.104Z" fill="#FFEDE5"/>
<path d="M239.075 184.226C239.075 184.226 240.718 175.319 240.356 173.396C239.995 171.474 234.621 172.772 232.386 172.772C230.151 172.772 228.574 172.443 228.886 173.725C229.198 175.007 233.668 175.368 233.668 175.368L235.311 175.993L239.075 184.226Z" fill="#FFEDE5"/>
<path d="M250.002 177.915H217.2V182.369H250.002V177.915Z" fill="#636183"/>
<path d="M262.097 168.055H247.767V191.621H262.097V168.055Z" fill="#636183"/>
<path d="M217.825 168.055H203.495V191.621H217.825V168.055Z" fill="#636183"/>
<path d="M223.248 174.415L225.039 183.157C225.157 183.741 225.48 184.264 225.951 184.629C226.422 184.994 227.008 185.177 227.603 185.146C229.838 185.014 233.305 184.817 235.343 184.604C238.531 184.291 239.484 185.244 239.813 182.96C239.961 181.81 240.207 179.674 240.421 177.866C240.464 177.47 240.421 177.07 240.295 176.692C240.17 176.314 239.964 175.968 239.693 175.676C239.422 175.385 239.091 175.155 238.723 175.003C238.356 174.85 237.96 174.779 237.562 174.793C235.08 174.793 231.958 174.99 231.202 174.99C229.936 175.056 225.795 171.555 223.248 174.415Z" fill="#FFEDE5"/>
</g>
<defs>
<linearGradient id="paint0_linear_255_4390" x1="5.00002" y1="8.00001" x2="468.048" y2="55.5476" gradientUnits="userSpaceOnUse">
<stop stop-color="#92A3FD"/>
<stop offset="1" stop-color="#9DCEFF"/>
</linearGradient>
</defs>
</svg>
